<?xml version="1.0" standalone="no"?>
<!DOCTYPE svg PUBLIC "-//W3C//DTD SVG 20010904//EN"
 "http://www.w3.org/TR/2001/REC-SVG-20010904/DTD/svg10.dtd">
<svg version="1.0" xmlns="http://www.w3.org/2000/svg"
 width="50.000000pt" height="49.000000pt" viewBox="0 0 50.000000 49.000000"
 preserveAspectRatio="xMidYMid meet">
<metadata>
Created by potrace 1.14, written by Peter Selinger 2001-2017
</metadata>
<g transform="translate(0.000000,49.000000) scale(0.100000,-0.100000)"
fill="#000000" stroke="none">
<path d="M212 460 c-23 -16 -44 -40 -47 -53 -8 -30 1 -108 12 -116 17 -12 43
-56 43 -73 0 -11 -12 -24 -27 -30 -43 -18 -63 -39 -63 -64 0 -38 39 -55 119
-55 93 0 113 11 109 59 -3 32 -8 39 -40 55 -46 21 -49 46 -12 95 21 27 28 49
32 102 4 59 2 70 -17 89 -29 29 -61 26 -109 -9z"/>
<path d="M50 138 c-73 -37 -62 -80 29 -115 58 -23 261 -25 333 -4 52 15 92 50
86 77 -3 18 -44 46 -85 59 -38 11 -28 -23 11 -39 18 -8 37 -19 40 -25 11 -17
-49 -41 -134 -53 -92 -13 -218 0 -272 28 l-32 17 23 18 c13 11 29 19 37 19 8
0 14 9 14 20 0 24 3 25 -50 -2z"/>
</g>
</svg>
